<svg width="128.000000" height="127.000000" viewBox="0 0 128 127" fill="none" xmlns="http://www.w3.org/2000/svg" xmlns:xlink="http://www.w3.org/1999/xlink">
	<desc>
			Created with Pixso.
	</desc>
	<defs/>
	<path id="Vector" d="M127.08 63.28C127.08 98.23 98.63 126.57 63.54 126.57C28.44 126.57 0 98.23 0 63.28C0 28.33 28.44 0 63.54 0C98.63 3.81e-6 127.08 28.33 127.08 63.28Z" fill="#3F3D56" fill-opacity="1.000000" fill-rule="evenodd"/>
	<path id="Vector" d="M118.21 63.28C118.22 71.78 116.23 80.16 112.39 87.75C108.56 95.34 103 101.93 96.15 107C95.69 107.34 95.22 107.67 94.75 107.99C85.59 114.34 74.7 117.74 63.54 117.74C52.38 117.74 41.49 114.34 32.32 107.99C31.85 107.67 31.39 107.34 30.93 107C24.08 101.93 18.52 95.34 14.69 87.74C10.86 80.15 8.86 71.78 8.86 63.28C8.86 54.78 10.86 46.41 14.69 38.82C18.52 31.23 24.08 24.63 30.93 19.57C31.39 19.23 31.85 18.89 32.32 18.57C41.49 12.23 52.38 8.83 63.54 8.83C74.7 8.83 85.59 12.23 94.75 18.57C95.22 18.89 95.69 19.23 96.15 19.57C103 24.63 108.56 31.22 112.39 38.81C116.23 46.4 118.22 54.78 118.21 63.28Z" fill="#FFFFFF" fill-opacity="1.000000" fill-rule="nonzero"/>
	<path id="Vector" d="M113.49 63.28C113.49 90.75 91.12 113.03 63.54 113.03C35.95 113.03 13.59 90.75 13.59 63.28C13.59 35.81 35.95 13.54 63.54 13.54C91.12 13.54 113.49 35.81 113.49 63.28Z" fill="#8FE1D7" fill-opacity="1.000000" fill-rule="evenodd"/>
	<path id="Vector" d="M63.69 10C63.25 10 62.84 10.17 62.54 10.48C62.23 10.78 62.06 11.19 62.06 11.62L62.06 18.69C62.06 19.12 62.23 19.53 62.54 19.83C62.84 20.13 63.25 20.31 63.69 20.31C64.12 20.31 64.53 20.13 64.83 19.83C65.14 19.53 65.31 19.12 65.31 18.69L65.31 11.62C65.31 11.19 65.14 10.78 64.83 10.48C64.53 10.17 64.12 10 63.69 10Z" fill="#FFFFFF" fill-opacity="1.000000" fill-rule="nonzero"/>
	<path id="Vector" d="M96.15 19.57C95.69 19.23 95.22 18.89 94.75 18.57C94.47 18.55 94.19 18.61 93.93 18.73C93.68 18.85 93.46 19.04 93.3 19.27L89.31 25.11C89.07 25.46 88.98 25.9 89.06 26.32C89.14 26.74 89.38 27.12 89.74 27.36C90.09 27.6 90.53 27.69 90.96 27.61C91.38 27.53 91.75 27.29 92 26.93L95.99 21.09C96.14 20.87 96.23 20.62 96.26 20.35C96.29 20.08 96.25 19.81 96.15 19.57Z" fill="#FFFFFF" fill-opacity="1.000000" fill-rule="nonzero"/>
	<path id="Vector" d="M114.29 46.18C114.21 45.98 114.09 45.81 113.94 45.65C113.79 45.5 113.61 45.38 113.41 45.3C113.22 45.22 113.01 45.17 112.79 45.17C112.58 45.17 112.37 45.21 112.17 45.29L105.6 47.95C105.2 48.11 104.88 48.43 104.71 48.82C104.55 49.22 104.54 49.66 104.7 50.06C104.87 50.46 105.18 50.77 105.58 50.94C105.97 51.11 106.42 51.11 106.82 50.95L113.39 48.29C113.79 48.13 114.11 47.82 114.28 47.42C114.44 47.02 114.45 46.58 114.29 46.18Z" fill="#FFFFFF" fill-opacity="1.000000" fill-rule="nonzero"/>
	<path id="Vector" d="M37.77 25.11L33.77 19.27C33.61 19.04 33.4 18.85 33.14 18.73C32.89 18.61 32.61 18.55 32.32 18.57C31.85 18.89 31.39 19.23 30.93 19.57C30.83 19.81 30.79 20.08 30.81 20.35C30.84 20.62 30.93 20.87 31.09 21.09L35.08 26.93C35.32 27.29 35.7 27.53 36.12 27.61C36.54 27.69 36.98 27.6 37.34 27.36C37.69 27.12 37.94 26.74 38.02 26.32C38.1 25.9 38.01 25.46 37.77 25.11Z" fill="#FFFFFF" fill-opacity="1.000000" fill-rule="nonzero"/>
	<path id="Vector" d="M21.48 47.95L14.91 45.29C14.51 45.13 14.06 45.13 13.66 45.3C13.26 45.47 12.95 45.79 12.79 46.18C12.63 46.58 12.63 47.03 12.8 47.42C12.96 47.82 13.28 48.13 13.68 48.29L20.25 50.95C20.65 51.11 21.1 51.11 21.5 50.94C21.89 50.77 22.21 50.46 22.37 50.06C22.53 49.66 22.53 49.22 22.36 48.82C22.2 48.43 21.88 48.11 21.48 47.95L21.48 47.95Z" fill="#FFFFFF" fill-opacity="1.000000" fill-rule="nonzero"/>
	<path id="Vector" d="M63.69 106.26C63.25 106.26 62.84 106.43 62.54 106.73C62.23 107.03 62.06 107.45 62.06 107.88L62.06 114.94C62.06 115.37 62.23 115.78 62.54 116.08C62.84 116.39 63.25 116.56 63.69 116.56C64.12 116.56 64.53 116.39 64.83 116.08C65.14 115.78 65.31 115.37 65.31 114.94L65.31 107.88C65.31 107.45 65.14 107.03 64.83 106.73C64.53 106.43 64.12 106.26 63.69 106.26Z" fill="#FFFFFF" fill-opacity="1.000000" fill-rule="nonzero"/>
	<path id="Vector" d="M95.99 105.47L92 99.63C91.88 99.45 91.72 99.3 91.54 99.19C91.36 99.07 91.17 98.99 90.96 98.95C90.75 98.91 90.53 98.91 90.32 98.96C90.11 99 89.91 99.08 89.74 99.2C89.56 99.32 89.41 99.48 89.29 99.65C89.18 99.83 89.1 100.03 89.06 100.24C89.02 100.45 89.02 100.66 89.06 100.87C89.1 101.08 89.19 101.28 89.31 101.45L93.3 107.29C93.46 107.52 93.68 107.71 93.93 107.83C94.19 107.96 94.47 108.01 94.75 107.99C95.22 107.67 95.69 107.34 96.15 107C96.25 106.75 96.29 106.48 96.26 106.21C96.23 105.94 96.14 105.69 95.99 105.47Z" fill="#FFFFFF" fill-opacity="1.000000" fill-rule="nonzero"/>
	<path id="Vector" d="M113.39 78.27L106.82 75.61C106.42 75.45 105.97 75.45 105.58 75.62C105.18 75.79 104.87 76.1 104.7 76.5C104.54 76.9 104.54 77.34 104.71 77.74C104.88 78.14 105.2 78.45 105.6 78.61L112.17 81.27C112.57 81.43 113.02 81.43 113.41 81.26C113.81 81.09 114.12 80.77 114.29 80.38C114.45 79.98 114.45 79.53 114.28 79.14C114.11 78.74 113.79 78.43 113.39 78.27L113.39 78.27Z" fill="#FFFFFF" fill-opacity="1.000000" fill-rule="nonzero"/>
	<path id="Vector" d="M37.34 99.2C36.98 98.96 36.54 98.87 36.12 98.95C35.7 99.03 35.32 99.28 35.08 99.63L31.09 105.47C30.93 105.69 30.84 105.94 30.81 106.21C30.79 106.48 30.83 106.75 30.93 106.99C31.39 107.34 31.85 107.67 32.32 107.99C32.61 108.01 32.89 107.96 33.14 107.83C33.4 107.71 33.61 107.52 33.77 107.29L37.77 101.45C37.89 101.28 37.97 101.08 38.01 100.87C38.06 100.66 38.06 100.45 38.02 100.24C37.98 100.03 37.9 99.83 37.78 99.65C37.66 99.48 37.51 99.32 37.34 99.2Z" fill="#FFFFFF" fill-opacity="1.000000" fill-rule="nonzero"/>
	<path id="Vector" d="M22.37 76.5C22.29 76.3 22.17 76.12 22.02 75.97C21.87 75.82 21.69 75.7 21.5 75.62C21.3 75.54 21.09 75.49 20.88 75.49C20.66 75.49 20.45 75.53 20.25 75.61L13.68 78.27C13.28 78.43 12.96 78.74 12.8 79.14C12.63 79.53 12.63 79.98 12.79 80.38C12.95 80.77 13.27 81.09 13.66 81.26C14.06 81.43 14.51 81.43 14.91 81.27L21.48 78.61C21.88 78.45 22.19 78.13 22.36 77.74C22.53 77.34 22.53 76.9 22.37 76.5Z" fill="#FFFFFF" fill-opacity="1.000000" fill-rule="nonzero"/>
	<path id="Vector" d="M65.79 62.48C65.94 63.36 65.74 64.27 65.21 65C64.69 65.73 63.9 66.23 63.01 66.38L34.17 71.27C33.73 71.34 33.28 71.33 32.84 71.23C32.41 71.13 32 70.95 31.63 70.69C31.27 70.44 30.96 70.11 30.72 69.73C30.48 69.36 30.32 68.94 30.25 68.5C30.17 68.06 30.19 67.61 30.29 67.18C30.38 66.75 30.57 66.34 30.83 65.97C31.08 65.61 31.41 65.3 31.79 65.07C32.17 64.83 32.59 64.67 33.03 64.59L61.87 59.71C62.76 59.56 63.67 59.77 64.41 60.29C65.14 60.8 65.64 61.59 65.79 62.48Z" fill="#3F3D56" fill-opacity="1.000000" fill-rule="nonzero"/>
	<path id="Vector" d="M96.15 94.31C95.74 94.72 95.18 94.96 94.59 94.96C94 94.96 93.44 94.73 93.02 94.32L61.97 63.64C61.55 63.22 61.31 62.66 61.31 62.08C61.31 61.49 61.54 60.93 61.96 60.51C62.37 60.1 62.93 59.86 63.52 59.86C64.11 59.86 64.67 60.09 65.09 60.5L96.14 91.18C96.56 91.6 96.79 92.16 96.79 92.74C96.8 93.33 96.57 93.89 96.15 94.31Z" fill="#3F3D56" fill-opacity="1.000000" fill-rule="nonzero"/>
	<path id="Vector" d="M67.38 63.28C67.38 65.39 65.66 67.11 63.54 67.11C61.42 67.11 59.7 65.39 59.7 63.28C59.7 61.17 61.42 59.45 63.54 59.45C65.66 59.45 67.38 61.17 67.38 63.28Z" fill="#CCCCCC" fill-opacity="1.000000" fill-rule="evenodd"/>
</svg>
