<svg width="180.000000" height="180.000000" viewBox="0 0 180 180" fill="none" xmlns="http://www.w3.org/2000/svg" xmlns:xlink="http://www.w3.org/1999/xlink">
	<desc>
			Created with Pixso.
	</desc>
	<defs>
		<clipPath id="clip9_145">
			<rect id="undraw_access_account_re_8spm 1" width="180.000000" height="180.000000" fill="white" fill-opacity="0"/>
		</clipPath>
	</defs>
	<rect id="undraw_access_account_re_8spm 1" width="180.000000" height="180.000000" fill="#FFFFFF" fill-opacity="0"/>
	<g clip-path="url(#clip9_145)">
		<path id="Path 1" d="M17.3 151.63L15.72 145.4C12.91 144.21 10.03 143.18 7.11 142.32L6.91 145.21L6.09 142.02C2.46 140.99 0 140.53 0 140.53C0 140.53 3.33 153.18 10.33 162.85L18.48 164.27L12.15 165.18C13.03 166.24 13.97 167.24 14.98 168.18C25.16 177.6 36.49 181.92 40.3 177.83C44.1 173.74 38.94 162.79 28.76 153.37C25.61 150.45 21.64 148.11 17.67 146.27L17.3 151.63Z" fill="#F2F2F2" fill-opacity="1.000000" fill-rule="nonzero"/>
		<path id="Path 2" d="M32.38 144.86L34.26 138.71C32.47 136.24 30.54 133.88 28.48 131.63L26.81 134.01L27.77 130.86C25.2 128.1 23.32 126.44 23.32 126.44C23.32 126.44 19.62 138.98 20.59 150.87L26.83 156.29L20.94 153.8C21.14 155.16 21.43 156.5 21.81 157.83C25.64 171.13 33.1 180.68 38.48 179.14C43.86 177.6 45.11 165.56 41.28 152.26C40.1 148.13 37.92 144.08 35.48 140.46L32.38 144.86Z" fill="#F2F2F2" fill-opacity="1.000000" fill-rule="nonzero"/>
		<path id="Path 22" d="M125.6 42.64L124.61 42.64L124.61 15.63C124.61 13.57 124.2 11.54 123.42 9.65C122.63 7.75 121.47 6.03 120.02 4.57C118.56 3.12 116.83 1.97 114.93 1.18C113.03 0.4 110.99 0 108.93 0L51.53 0C47.38 0 43.39 1.64 40.45 4.57C37.51 7.51 35.85 11.48 35.85 15.63L35.85 163.81C35.85 165.86 36.26 167.89 37.05 169.79C37.84 171.68 38.99 173.41 40.45 174.86C41.9 176.31 43.63 177.46 45.53 178.25C47.44 179.03 49.47 179.44 51.53 179.44L108.93 179.44C113.09 179.44 117.08 177.79 120.02 174.86C122.96 171.93 124.61 167.95 124.61 163.81L124.61 61.86L125.6 61.86L125.6 42.64Z" fill="#E6E6E6" fill-opacity="1.000000" fill-rule="nonzero"/>
		<path id="Path 23" d="M109.56 4.06L102.07 4.06C102.42 4.9 102.55 5.82 102.45 6.72C102.36 7.63 102.05 8.49 101.54 9.25C101.03 10 100.34 10.62 99.54 11.05C98.73 11.48 97.83 11.7 96.92 11.7L64.04 11.7C63.13 11.7 62.23 11.48 61.42 11.05C60.62 10.62 59.93 10 59.42 9.25C58.91 8.49 58.6 7.63 58.5 6.72C58.41 5.82 58.54 4.9 58.89 4.06L51.89 4.06C48.78 4.06 45.81 5.29 43.61 7.48C41.41 9.67 40.18 12.64 40.18 15.74L40.18 163.7C40.18 166.79 41.41 169.76 43.61 171.95C45.81 174.14 48.78 175.37 51.89 175.37L109.56 175.37C112.67 175.37 115.65 174.14 117.84 171.95C120.04 169.76 121.27 166.79 121.27 163.7L121.27 15.73C121.27 12.64 120.04 9.67 117.84 7.48C115.65 5.29 112.67 4.06 109.56 4.06Z" fill="#FFFFFF" fill-opacity="1.000000" fill-rule="nonzero"/>
		<path id="Path 6" d="M73.38 63C73.38 61.97 73.65 60.95 74.17 60.06C74.69 59.16 75.43 58.42 76.33 57.9C75.43 57.38 74.42 57.11 73.38 57.11C72.34 57.11 71.32 57.38 70.42 57.9C69.53 58.42 68.78 59.16 68.26 60.06C67.74 60.95 67.47 61.97 67.47 63C67.47 64.04 67.74 65.05 68.26 65.95C68.78 66.84 69.53 67.59 70.42 68.1C71.32 68.62 72.34 68.89 73.38 68.89C74.42 68.89 75.43 68.62 76.33 68.1C75.43 67.59 74.69 66.84 74.17 65.95C73.65 65.05 73.38 64.04 73.38 63Z" fill="#CCCCCC" fill-opacity="1.000000" fill-rule="nonzero"/>
		<path id="Path 7" d="M80.8 63C80.8 61.97 81.08 60.95 81.6 60.06C82.12 59.16 82.86 58.42 83.76 57.9C82.86 57.38 81.84 57.11 80.81 57.11C79.77 57.11 78.75 57.38 77.85 57.9C76.95 58.42 76.21 59.16 75.69 60.06C75.17 60.95 74.9 61.97 74.9 63C74.9 64.04 75.17 65.05 75.69 65.95C76.21 66.84 76.95 67.59 77.85 68.1C78.75 68.62 79.77 68.89 80.81 68.89C81.84 68.89 82.86 68.62 83.76 68.1C82.86 67.59 82.12 66.84 81.6 65.95C81.08 65.05 80.8 64.04 80.8 63Z" fill="#CCCCCC" fill-opacity="1.000000" fill-rule="nonzero"/>
		<path id="Ellipse 1" d="M93.97 63C93.97 66.25 91.33 68.89 88.06 68.89C84.8 68.89 82.16 66.25 82.16 63C82.16 59.75 84.8 57.11 88.06 57.11C91.33 57.11 93.97 59.75 93.97 63Z" fill="#8FE1D7" fill-opacity="1.000000" fill-rule="evenodd"/>
		<path id="Path 8" d="M97.94 81.4L63.5 81.4C63.17 81.4 62.86 81.27 62.63 81.04C62.4 80.81 62.27 80.49 62.27 80.17L62.27 45.83C62.27 45.51 62.4 45.19 62.63 44.96C62.86 44.73 63.17 44.6 63.5 44.6L97.94 44.6C98.27 44.6 98.58 44.73 98.81 44.96C99.04 45.19 99.18 45.51 99.18 45.83L99.18 80.17C99.18 80.49 99.04 80.81 98.81 81.04C98.58 81.27 98.27 81.4 97.94 81.4ZM63.5 45.09C63.31 45.09 63.12 45.17 62.98 45.31C62.84 45.45 62.76 45.64 62.76 45.83L62.76 80.17C62.76 80.36 62.84 80.55 62.98 80.69C63.12 80.83 63.31 80.91 63.5 80.91L97.94 80.91C98.14 80.91 98.32 80.83 98.46 80.69C98.6 80.55 98.68 80.36 98.68 80.17L98.68 45.83C98.68 45.64 98.6 45.45 98.46 45.31C98.32 45.17 98.14 45.09 97.94 45.09L63.5 45.09Z" fill="#CCCCCC" fill-opacity="1.000000" fill-rule="nonzero"/>
		<path id="Rectangle 1" d="M52.81 107.72L105.63 107.72L105.63 108.21L52.81 108.21L52.81 107.72Z" fill="#CCCCCC" fill-opacity="1.000000" fill-rule="evenodd"/>
		<path id="Ellipse 2" d="M56.15 102.98C56.15 103.9 55.4 104.64 54.48 104.64C53.56 104.64 52.81 103.9 52.81 102.98C52.81 102.06 53.56 101.31 54.48 101.31C55.4 101.31 56.15 102.06 56.15 102.98Z" fill="#8FE1D7" fill-opacity="1.000000" fill-rule="evenodd"/>
		<path id="Rectangle 2" d="M52.81 124.35L105.63 124.35L105.63 124.84L52.81 124.84L52.81 124.35Z" fill="#CCCCCC" fill-opacity="1.000000" fill-rule="evenodd"/>
		<path id="Ellipse 3" d="M56.15 119.61C56.15 120.52 55.4 121.27 54.48 121.27C53.56 121.27 52.81 120.52 52.81 119.61C52.81 118.69 53.56 117.94 54.48 117.94C55.4 117.94 56.15 118.69 56.15 119.61Z" fill="#8FE1D7" fill-opacity="1.000000" fill-rule="evenodd"/>
		<path id="Vector" d="M104.66 143.28L87.97 143.28C87.68 143.28 87.41 143.17 87.2 142.97C87 142.76 86.88 142.49 86.88 142.2L86.88 136.37C86.88 136.08 87 135.8 87.2 135.6C87.41 135.4 87.68 135.28 87.97 135.28L104.66 135.28C104.95 135.28 105.23 135.4 105.43 135.6C105.63 135.8 105.75 136.08 105.75 136.37L105.75 142.2C105.75 142.49 105.63 142.76 105.43 142.97C105.23 143.17 104.95 143.28 104.66 143.28Z" fill="#8FE1D7" fill-opacity="1.000000" fill-rule="nonzero"/>
		<path id="Ellipse 7" d="M61.59 102.98C61.59 103.9 60.84 104.64 59.92 104.64C59 104.64 58.25 103.9 58.25 102.98C58.25 102.06 59 101.31 59.92 101.31C60.84 101.31 61.59 102.06 61.59 102.98Z" fill="#8FE1D7" fill-opacity="1.000000" fill-rule="evenodd"/>
		<path id="Ellipse 8" d="M67.03 102.98C67.03 103.9 66.28 104.64 65.36 104.64C64.44 104.64 63.69 103.9 63.69 102.98C63.69 102.06 64.44 101.31 65.36 101.31C66.28 101.31 67.03 102.06 67.03 102.98Z" fill="#8FE1D7" fill-opacity="1.000000" fill-rule="evenodd"/>
		<path id="Ellipse 9" d="M61.59 119.61C61.59 120.52 60.84 121.27 59.92 121.27C59 121.27 58.25 120.52 58.25 119.61C58.25 118.69 59 117.94 59.92 117.94C60.84 117.94 61.59 118.69 61.59 119.61Z" fill="#8FE1D7" fill-opacity="1.000000" fill-rule="evenodd"/>
		<path id="Ellipse 10" d="M67.03 119.61C67.03 120.52 66.28 121.27 65.36 121.27C64.44 121.27 63.69 120.52 63.69 119.61C63.69 118.69 64.44 117.94 65.36 117.94C66.28 117.94 67.03 118.69 67.03 119.61Z" fill="#8FE1D7" fill-opacity="1.000000" fill-rule="evenodd"/>
		<path id="Path 88" d="M179.32 180L5.81 180C5.44 180 5.14 179.86 5.14 179.7C5.14 179.54 5.44 179.41 5.81 179.41L179.32 179.41C179.69 179.41 180 179.54 180 179.7C180 179.86 179.69 180 179.32 180Z" fill="#3F3D56" fill-opacity="1.000000" fill-rule="nonzero"/>
		<path id="Vector" d="M136.46 117.93C136.57 117.98 136.69 118.04 136.8 118.12L147.64 113.5L148.02 110.66L152.35 110.63L152.1 117.16L137.79 120.93C137.76 121.03 137.72 121.13 137.68 121.22C137.48 121.66 137.14 122.03 136.73 122.28C136.31 122.54 135.83 122.66 135.34 122.64C134.85 122.62 134.38 122.46 133.99 122.17C133.6 121.89 133.29 121.49 133.12 121.03C132.95 120.58 132.92 120.08 133.03 119.61C133.15 119.14 133.4 118.71 133.75 118.38C134.11 118.04 134.56 117.82 135.03 117.74C135.52 117.66 136.01 117.73 136.46 117.93Z" fill="#FFB8B8" fill-opacity="1.000000" fill-rule="nonzero"/>
		<path id="Vector" d="M153.93 177.09L150.97 177.09L149.56 165.7L153.93 165.7L153.93 177.09Z" fill="#FFB8B8" fill-opacity="1.000000" fill-rule="nonzero"/>
		<path id="Vector" d="M148.85 176.25L154.56 176.25L154.56 179.83L145.25 179.83C145.25 178.88 145.63 177.97 146.31 177.3C146.98 176.62 147.89 176.25 148.85 176.25Z" fill="#2F2E41" fill-opacity="1.000000" fill-rule="nonzero"/>
		<path id="Vector" d="M165.45 176.26L162.5 176.55L159.98 165.34L164.33 164.92L165.45 176.26Z" fill="#FFB8B8" fill-opacity="1.000000" fill-rule="nonzero"/>
		<path id="Vector" d="M160.31 175.91L166 175.35L166.35 178.92L157.09 179.83C157.04 179.36 157.09 178.89 157.22 178.44C157.36 177.99 157.59 177.57 157.88 177.21C158.18 176.84 158.55 176.54 158.97 176.32C159.39 176.1 159.84 175.96 160.31 175.91Z" fill="#2F2E41" fill-opacity="1.000000" fill-rule="nonzero"/>
		<path id="Vector" d="M160.69 92.65C160.69 95.92 158.03 98.57 154.75 98.57C151.47 98.57 148.82 95.92 148.82 92.65C148.82 89.39 151.47 86.74 154.75 86.74C158.03 86.74 160.69 89.39 160.69 92.65Z" fill="#FFB8B8" fill-opacity="1.000000" fill-rule="evenodd"/>
		<path id="Vector" d="M150.3 174.79C150.05 174.79 149.8 174.7 149.61 174.54C149.41 174.37 149.28 174.15 149.24 173.9C147.7 165.41 142.69 137.66 142.57 136.89C142.57 136.87 142.57 136.85 142.57 136.84L142.57 134.77C142.57 134.69 142.59 134.62 142.63 134.56L143.3 133.63C143.33 133.59 143.37 133.55 143.42 133.52C143.46 133.5 143.52 133.48 143.57 133.48C147.35 133.3 159.71 132.79 160.31 133.53C160.91 134.28 160.7 136.54 160.65 136.99L160.65 137.04L166.21 172.45C166.25 172.74 166.18 173.03 166.01 173.26C165.84 173.49 165.59 173.64 165.31 173.69L161.84 174.26C161.58 174.3 161.32 174.25 161.09 174.11C160.87 173.98 160.7 173.76 160.62 173.52C159.55 170.1 155.95 158.6 154.71 154.15C154.7 154.12 154.68 154.1 154.66 154.08C154.63 154.06 154.6 154.06 154.57 154.06C154.54 154.06 154.52 154.08 154.5 154.1C154.48 154.12 154.47 154.15 154.47 154.18C154.53 158.42 154.68 169.25 154.73 172.98L154.74 173.39C154.74 173.66 154.64 173.92 154.46 174.12C154.28 174.33 154.02 174.45 153.75 174.48L150.4 174.78C150.37 174.79 150.34 174.79 150.3 174.79Z" fill="#2F2E41" fill-opacity="1.000000" fill-rule="nonzero"/>
		<path id="Path 99" d="M150.99 100.9C149.95 101.51 149.33 102.64 148.97 103.79C148.32 105.91 147.92 108.11 147.79 110.33L147.42 116.98L142.77 134.61C146.8 138.01 149.12 137.24 154.55 134.46C159.98 131.67 160.6 135.39 160.6 135.39L161.69 120.39L163.24 103.99C162.89 103.58 162.5 103.2 162.06 102.87C160.63 101.76 158.96 100.98 157.19 100.61C155.41 100.23 153.57 100.26 151.81 100.7L150.99 100.9Z" fill="#8FE1D7" fill-opacity="1.000000" fill-rule="nonzero"/>
		<path id="Vector" d="M149.47 121.49C149.6 121.53 149.72 121.59 149.84 121.66L160.55 116.31L160.73 113.41L165.15 113.11L165.39 119.71L151.07 124.43C150.95 124.93 150.68 125.39 150.3 125.73C149.92 126.08 149.44 126.3 148.93 126.37C148.42 126.43 147.9 126.35 147.44 126.11C146.99 125.88 146.61 125.51 146.36 125.06C146.12 124.61 146.02 124.09 146.08 123.58C146.13 123.07 146.34 122.59 146.68 122.2C147.02 121.81 147.47 121.54 147.97 121.41C148.47 121.28 148.99 121.31 149.47 121.49Z" fill="#FFB8B8" fill-opacity="1.000000" fill-rule="nonzero"/>
		<path id="Path 101" d="M163.16 104.07C165.8 105 166.26 115.05 166.26 115.05C163.16 113.35 159.44 116.13 159.44 116.13C159.44 116.13 158.66 113.5 157.73 110.1C157.45 109.14 157.42 108.13 157.63 107.16C157.85 106.18 158.31 105.28 158.97 104.53C158.97 104.53 160.52 103.14 163.16 104.07Z" fill="#8FE1D7" fill-opacity="1.000000" fill-rule="nonzero"/>
		<path id="Path 102" d="M160.07 94.22C159.34 93.63 158.33 94.7 158.33 94.7L157.73 89.39C157.73 89.39 154.04 89.83 151.67 89.25C149.3 88.66 148.93 91.38 148.93 91.38C148.81 90.28 148.79 89.17 148.86 88.07C149.01 86.74 150.93 85.41 154.33 84.53C157.73 83.64 159.51 87.48 159.51 87.48C161.88 88.66 160.81 94.81 160.07 94.22Z" fill="#2F2E41" fill-opacity="1.000000" fill-rule="nonzero"/>
	</g>
</svg>
